<mxfile host="app.diagrams.net" modified="2023-08-05T15:13:34.805Z" agent="Mozilla/5.0 (Windows NT 10.0; Win64; x64) AppleWebKit/537.36 (KHTML, like Gecko) Chrome/115.0.0.0 Safari/537.36" etag="f2iwTcdb6sLUwn2tkRMz" version="21.6.6" type="google">
  <diagram id="R2lEEEUBdFMjLlhIrx00" name="Page-1">
    <mxGraphModel dx="1728" dy="958" grid="1" gridSize="10" guides="1" tooltips="1" connect="1" arrows="1" fold="1" page="1" pageScale="1" pageWidth="1100" pageHeight="850" math="0" shadow="0" extFonts="Permanent Marker^https://fonts.googleapis.com/css?family=Permanent+Marker">
      <root>
        <mxCell id="0" />
        <mxCell id="1" parent="0" />
        <mxCell id="C-vyLk0tnHw3VtMMgP7b-12" value="" style="edgeStyle=entityRelationEdgeStyle;endArrow=ERzeroToMany;startArrow=ERone;endFill=1;startFill=0;" parent="1" source="C-vyLk0tnHw3VtMMgP7b-3" target="C-vyLk0tnHw3VtMMgP7b-17" edge="1">
          <mxGeometry width="100" height="100" relative="1" as="geometry">
            <mxPoint x="400" y="180" as="sourcePoint" />
            <mxPoint x="460" y="205" as="targetPoint" />
          </mxGeometry>
        </mxCell>
        <mxCell id="C-vyLk0tnHw3VtMMgP7b-2" value="Oil&amp;Gas_Field" style="shape=table;startSize=30;container=1;collapsible=1;childLayout=tableLayout;fixedRows=1;rowLines=0;fontStyle=1;align=center;resizeLast=1;" parent="1" vertex="1">
          <mxGeometry x="360" y="60" width="240" height="180" as="geometry" />
        </mxCell>
        <mxCell id="C-vyLk0tnHw3VtMMgP7b-3" value="" style="shape=partialRectangle;collapsible=0;dropTarget=0;pointerEvents=0;fillColor=none;points=[[0,0.5],[1,0.5]];portConstraint=eastwest;top=0;left=0;right=0;bottom=1;" parent="C-vyLk0tnHw3VtMMgP7b-2" vertex="1">
          <mxGeometry y="30" width="240" height="30" as="geometry" />
        </mxCell>
        <mxCell id="C-vyLk0tnHw3VtMMgP7b-4" value="PK" style="shape=partialRectangle;overflow=hidden;connectable=0;fillColor=none;top=0;left=0;bottom=0;right=0;fontStyle=1;" parent="C-vyLk0tnHw3VtMMgP7b-3" vertex="1">
          <mxGeometry width="40" height="30" as="geometry">
            <mxRectangle width="40" height="30" as="alternateBounds" />
          </mxGeometry>
        </mxCell>
        <mxCell id="C-vyLk0tnHw3VtMMgP7b-5" value="Gas_field_id int NOT NULL " style="shape=partialRectangle;overflow=hidden;connectable=0;fillColor=none;top=0;left=0;bottom=0;right=0;align=left;spacingLeft=6;fontStyle=5;" parent="C-vyLk0tnHw3VtMMgP7b-3" vertex="1">
          <mxGeometry x="40" width="200" height="30" as="geometry">
            <mxRectangle width="200" height="30" as="alternateBounds" />
          </mxGeometry>
        </mxCell>
        <mxCell id="C-vyLk0tnHw3VtMMgP7b-6" value="" style="shape=partialRectangle;collapsible=0;dropTarget=0;pointerEvents=0;fillColor=none;points=[[0,0.5],[1,0.5]];portConstraint=eastwest;top=0;left=0;right=0;bottom=0;" parent="C-vyLk0tnHw3VtMMgP7b-2" vertex="1">
          <mxGeometry y="60" width="240" height="40" as="geometry" />
        </mxCell>
        <mxCell id="C-vyLk0tnHw3VtMMgP7b-7" value="" style="shape=partialRectangle;overflow=hidden;connectable=0;fillColor=none;top=0;left=0;bottom=0;right=0;" parent="C-vyLk0tnHw3VtMMgP7b-6" vertex="1">
          <mxGeometry width="40" height="40" as="geometry">
            <mxRectangle width="40" height="40" as="alternateBounds" />
          </mxGeometry>
        </mxCell>
        <mxCell id="C-vyLk0tnHw3VtMMgP7b-8" value="" style="shape=partialRectangle;overflow=hidden;connectable=0;fillColor=none;top=0;left=0;bottom=0;right=0;align=left;spacingLeft=6;" parent="C-vyLk0tnHw3VtMMgP7b-6" vertex="1">
          <mxGeometry x="40" width="200" height="40" as="geometry">
            <mxRectangle width="200" height="40" as="alternateBounds" />
          </mxGeometry>
        </mxCell>
        <mxCell id="vooBvcQWxdQSS4KOjkIJ-17" value="" style="shape=partialRectangle;collapsible=0;dropTarget=0;pointerEvents=0;fillColor=none;points=[[0,0.5],[1,0.5]];portConstraint=eastwest;top=0;left=0;right=0;bottom=0;" vertex="1" parent="C-vyLk0tnHw3VtMMgP7b-2">
          <mxGeometry y="100" width="240" height="40" as="geometry" />
        </mxCell>
        <mxCell id="vooBvcQWxdQSS4KOjkIJ-18" value="" style="shape=partialRectangle;overflow=hidden;connectable=0;fillColor=none;top=0;left=0;bottom=0;right=0;" vertex="1" parent="vooBvcQWxdQSS4KOjkIJ-17">
          <mxGeometry width="40" height="40" as="geometry">
            <mxRectangle width="40" height="40" as="alternateBounds" />
          </mxGeometry>
        </mxCell>
        <mxCell id="vooBvcQWxdQSS4KOjkIJ-19" value="Field_name char(50) NOT NULL" style="shape=partialRectangle;overflow=hidden;connectable=0;fillColor=none;top=0;left=0;bottom=0;right=0;align=left;spacingLeft=6;" vertex="1" parent="vooBvcQWxdQSS4KOjkIJ-17">
          <mxGeometry x="40" width="200" height="40" as="geometry">
            <mxRectangle width="200" height="40" as="alternateBounds" />
          </mxGeometry>
        </mxCell>
        <mxCell id="vooBvcQWxdQSS4KOjkIJ-56" value="" style="shape=partialRectangle;collapsible=0;dropTarget=0;pointerEvents=0;fillColor=none;points=[[0,0.5],[1,0.5]];portConstraint=eastwest;top=0;left=0;right=0;bottom=0;" vertex="1" parent="C-vyLk0tnHw3VtMMgP7b-2">
          <mxGeometry y="140" width="240" height="40" as="geometry" />
        </mxCell>
        <mxCell id="vooBvcQWxdQSS4KOjkIJ-57" value="" style="shape=partialRectangle;overflow=hidden;connectable=0;fillColor=none;top=0;left=0;bottom=0;right=0;" vertex="1" parent="vooBvcQWxdQSS4KOjkIJ-56">
          <mxGeometry width="40" height="40" as="geometry">
            <mxRectangle width="40" height="40" as="alternateBounds" />
          </mxGeometry>
        </mxCell>
        <mxCell id="vooBvcQWxdQSS4KOjkIJ-58" value="Field_location char(50) NOT NULL" style="shape=partialRectangle;overflow=hidden;connectable=0;fillColor=none;top=0;left=0;bottom=0;right=0;align=left;spacingLeft=6;" vertex="1" parent="vooBvcQWxdQSS4KOjkIJ-56">
          <mxGeometry x="40" width="200" height="40" as="geometry">
            <mxRectangle width="200" height="40" as="alternateBounds" />
          </mxGeometry>
        </mxCell>
        <mxCell id="C-vyLk0tnHw3VtMMgP7b-13" value="Collection_object_and_preparation" style="shape=table;startSize=30;container=1;collapsible=1;childLayout=tableLayout;fixedRows=1;rowLines=0;fontStyle=1;align=center;resizeLast=1;" parent="1" vertex="1">
          <mxGeometry x="680" y="60" width="270" height="180" as="geometry" />
        </mxCell>
        <mxCell id="C-vyLk0tnHw3VtMMgP7b-14" value="" style="shape=partialRectangle;collapsible=0;dropTarget=0;pointerEvents=0;fillColor=none;points=[[0,0.5],[1,0.5]];portConstraint=eastwest;top=0;left=0;right=0;bottom=1;" parent="C-vyLk0tnHw3VtMMgP7b-13" vertex="1">
          <mxGeometry y="30" width="270" height="30" as="geometry" />
        </mxCell>
        <mxCell id="C-vyLk0tnHw3VtMMgP7b-15" value="PK" style="shape=partialRectangle;overflow=hidden;connectable=0;fillColor=none;top=0;left=0;bottom=0;right=0;fontStyle=1;" parent="C-vyLk0tnHw3VtMMgP7b-14" vertex="1">
          <mxGeometry width="40" height="30" as="geometry">
            <mxRectangle width="40" height="30" as="alternateBounds" />
          </mxGeometry>
        </mxCell>
        <mxCell id="C-vyLk0tnHw3VtMMgP7b-16" value="Object_id int NOT NULL " style="shape=partialRectangle;overflow=hidden;connectable=0;fillColor=none;top=0;left=0;bottom=0;right=0;align=left;spacingLeft=6;fontStyle=5;" parent="C-vyLk0tnHw3VtMMgP7b-14" vertex="1">
          <mxGeometry x="40" width="230" height="30" as="geometry">
            <mxRectangle width="230" height="30" as="alternateBounds" />
          </mxGeometry>
        </mxCell>
        <mxCell id="C-vyLk0tnHw3VtMMgP7b-17" value="" style="shape=partialRectangle;collapsible=0;dropTarget=0;pointerEvents=0;fillColor=none;points=[[0,0.5],[1,0.5]];portConstraint=eastwest;top=0;left=0;right=0;bottom=0;" parent="C-vyLk0tnHw3VtMMgP7b-13" vertex="1">
          <mxGeometry y="60" width="270" height="40" as="geometry" />
        </mxCell>
        <mxCell id="C-vyLk0tnHw3VtMMgP7b-18" value="FK1" style="shape=partialRectangle;overflow=hidden;connectable=0;fillColor=none;top=0;left=0;bottom=0;right=0;" parent="C-vyLk0tnHw3VtMMgP7b-17" vertex="1">
          <mxGeometry width="40" height="40" as="geometry">
            <mxRectangle width="40" height="40" as="alternateBounds" />
          </mxGeometry>
        </mxCell>
        <mxCell id="C-vyLk0tnHw3VtMMgP7b-19" value="Gas_field_id int NOT NULL" style="shape=partialRectangle;overflow=hidden;connectable=0;fillColor=none;top=0;left=0;bottom=0;right=0;align=left;spacingLeft=6;" parent="C-vyLk0tnHw3VtMMgP7b-17" vertex="1">
          <mxGeometry x="40" width="230" height="40" as="geometry">
            <mxRectangle width="230" height="40" as="alternateBounds" />
          </mxGeometry>
        </mxCell>
        <mxCell id="C-vyLk0tnHw3VtMMgP7b-20" value="" style="shape=partialRectangle;collapsible=0;dropTarget=0;pointerEvents=0;fillColor=none;points=[[0,0.5],[1,0.5]];portConstraint=eastwest;top=0;left=0;right=0;bottom=0;" parent="C-vyLk0tnHw3VtMMgP7b-13" vertex="1">
          <mxGeometry y="100" width="270" height="40" as="geometry" />
        </mxCell>
        <mxCell id="C-vyLk0tnHw3VtMMgP7b-21" value="" style="shape=partialRectangle;overflow=hidden;connectable=0;fillColor=none;top=0;left=0;bottom=0;right=0;" parent="C-vyLk0tnHw3VtMMgP7b-20" vertex="1">
          <mxGeometry width="40" height="40" as="geometry">
            <mxRectangle width="40" height="40" as="alternateBounds" />
          </mxGeometry>
        </mxCell>
        <mxCell id="C-vyLk0tnHw3VtMMgP7b-22" value="Object_name char(50) NOT NUL" style="shape=partialRectangle;overflow=hidden;connectable=0;fillColor=none;top=0;left=0;bottom=0;right=0;align=left;spacingLeft=6;" parent="C-vyLk0tnHw3VtMMgP7b-20" vertex="1">
          <mxGeometry x="40" width="230" height="40" as="geometry">
            <mxRectangle width="230" height="40" as="alternateBounds" />
          </mxGeometry>
        </mxCell>
        <mxCell id="vooBvcQWxdQSS4KOjkIJ-62" value="" style="shape=partialRectangle;collapsible=0;dropTarget=0;pointerEvents=0;fillColor=none;points=[[0,0.5],[1,0.5]];portConstraint=eastwest;top=0;left=0;right=0;bottom=0;" vertex="1" parent="C-vyLk0tnHw3VtMMgP7b-13">
          <mxGeometry y="140" width="270" height="40" as="geometry" />
        </mxCell>
        <mxCell id="vooBvcQWxdQSS4KOjkIJ-63" value="" style="shape=partialRectangle;overflow=hidden;connectable=0;fillColor=none;top=0;left=0;bottom=0;right=0;" vertex="1" parent="vooBvcQWxdQSS4KOjkIJ-62">
          <mxGeometry width="40" height="40" as="geometry">
            <mxRectangle width="40" height="40" as="alternateBounds" />
          </mxGeometry>
        </mxCell>
        <mxCell id="vooBvcQWxdQSS4KOjkIJ-64" value="Type_of_preparatione char(50) NOT NULL" style="shape=partialRectangle;overflow=hidden;connectable=0;fillColor=none;top=0;left=0;bottom=0;right=0;align=left;spacingLeft=6;" vertex="1" parent="vooBvcQWxdQSS4KOjkIJ-62">
          <mxGeometry x="40" width="230" height="40" as="geometry">
            <mxRectangle width="230" height="40" as="alternateBounds" />
          </mxGeometry>
        </mxCell>
        <mxCell id="C-vyLk0tnHw3VtMMgP7b-23" value="Subsidiary_oil&amp;gas_production_company" style="shape=table;startSize=30;container=1;collapsible=1;childLayout=tableLayout;fixedRows=1;rowLines=0;fontStyle=1;align=center;resizeLast=1;" parent="1" vertex="1">
          <mxGeometry x="40" y="80" width="240" height="120" as="geometry" />
        </mxCell>
        <mxCell id="C-vyLk0tnHw3VtMMgP7b-24" value="" style="shape=partialRectangle;collapsible=0;dropTarget=0;pointerEvents=0;fillColor=none;points=[[0,0.5],[1,0.5]];portConstraint=eastwest;top=0;left=0;right=0;bottom=1;" parent="C-vyLk0tnHw3VtMMgP7b-23" vertex="1">
          <mxGeometry y="30" width="240" height="30" as="geometry" />
        </mxCell>
        <mxCell id="C-vyLk0tnHw3VtMMgP7b-25" value="PK" style="shape=partialRectangle;overflow=hidden;connectable=0;fillColor=none;top=0;left=0;bottom=0;right=0;fontStyle=1;" parent="C-vyLk0tnHw3VtMMgP7b-24" vertex="1">
          <mxGeometry width="30" height="30" as="geometry">
            <mxRectangle width="30" height="30" as="alternateBounds" />
          </mxGeometry>
        </mxCell>
        <mxCell id="C-vyLk0tnHw3VtMMgP7b-26" value="Сompany_id int NOT NULL " style="shape=partialRectangle;overflow=hidden;connectable=0;fillColor=none;top=0;left=0;bottom=0;right=0;align=left;spacingLeft=6;fontStyle=5;" parent="C-vyLk0tnHw3VtMMgP7b-24" vertex="1">
          <mxGeometry x="30" width="210" height="30" as="geometry">
            <mxRectangle width="210" height="30" as="alternateBounds" />
          </mxGeometry>
        </mxCell>
        <mxCell id="C-vyLk0tnHw3VtMMgP7b-27" value="" style="shape=partialRectangle;collapsible=0;dropTarget=0;pointerEvents=0;fillColor=none;points=[[0,0.5],[1,0.5]];portConstraint=eastwest;top=0;left=0;right=0;bottom=0;" parent="C-vyLk0tnHw3VtMMgP7b-23" vertex="1">
          <mxGeometry y="60" width="240" height="60" as="geometry" />
        </mxCell>
        <mxCell id="C-vyLk0tnHw3VtMMgP7b-28" value="" style="shape=partialRectangle;overflow=hidden;connectable=0;fillColor=none;top=0;left=0;bottom=0;right=0;" parent="C-vyLk0tnHw3VtMMgP7b-27" vertex="1">
          <mxGeometry width="30" height="60" as="geometry">
            <mxRectangle width="30" height="60" as="alternateBounds" />
          </mxGeometry>
        </mxCell>
        <mxCell id="C-vyLk0tnHw3VtMMgP7b-29" value="Сompany_name char(50) NOT NULL&#xa;&#xa;Сompany_location char(50) NOT NULL" style="shape=partialRectangle;overflow=hidden;connectable=0;fillColor=none;top=0;left=0;bottom=0;right=0;align=left;spacingLeft=6;" parent="C-vyLk0tnHw3VtMMgP7b-27" vertex="1">
          <mxGeometry x="30" width="210" height="60" as="geometry">
            <mxRectangle width="210" height="60" as="alternateBounds" />
          </mxGeometry>
        </mxCell>
        <mxCell id="vooBvcQWxdQSS4KOjkIJ-1" value="" style="shape=partialRectangle;collapsible=0;dropTarget=0;pointerEvents=0;fillColor=none;points=[[0,0.5],[1,0.5]];portConstraint=eastwest;top=0;left=0;right=0;bottom=0;" vertex="1" parent="1">
          <mxGeometry x="130" y="190" width="250" height="30" as="geometry" />
        </mxCell>
        <mxCell id="vooBvcQWxdQSS4KOjkIJ-2" value="" style="shape=partialRectangle;overflow=hidden;connectable=0;fillColor=none;top=0;left=0;bottom=0;right=0;" vertex="1" parent="vooBvcQWxdQSS4KOjkIJ-1">
          <mxGeometry width="30" height="30" as="geometry">
            <mxRectangle width="30" height="30" as="alternateBounds" />
          </mxGeometry>
        </mxCell>
        <mxCell id="vooBvcQWxdQSS4KOjkIJ-5" value="&#xa;Injection_wells" style="shape=table;startSize=30;container=1;collapsible=1;childLayout=tableLayout;fixedRows=1;rowLines=0;fontStyle=1;align=center;resizeLast=1;" vertex="1" parent="1">
          <mxGeometry x="640" y="260" width="290" height="220" as="geometry" />
        </mxCell>
        <mxCell id="vooBvcQWxdQSS4KOjkIJ-6" value="" style="shape=partialRectangle;collapsible=0;dropTarget=0;pointerEvents=0;fillColor=none;points=[[0,0.5],[1,0.5]];portConstraint=eastwest;top=0;left=0;right=0;bottom=1;" vertex="1" parent="vooBvcQWxdQSS4KOjkIJ-5">
          <mxGeometry y="30" width="290" height="30" as="geometry" />
        </mxCell>
        <mxCell id="vooBvcQWxdQSS4KOjkIJ-7" value="PK" style="shape=partialRectangle;overflow=hidden;connectable=0;fillColor=none;top=0;left=0;bottom=0;right=0;fontStyle=1;" vertex="1" parent="vooBvcQWxdQSS4KOjkIJ-6">
          <mxGeometry width="40" height="30" as="geometry">
            <mxRectangle width="40" height="30" as="alternateBounds" />
          </mxGeometry>
        </mxCell>
        <mxCell id="vooBvcQWxdQSS4KOjkIJ-8" value="Injection_well_id int NOT NULL " style="shape=partialRectangle;overflow=hidden;connectable=0;fillColor=none;top=0;left=0;bottom=0;right=0;align=left;spacingLeft=6;fontStyle=5;" vertex="1" parent="vooBvcQWxdQSS4KOjkIJ-6">
          <mxGeometry x="40" width="250" height="30" as="geometry">
            <mxRectangle width="250" height="30" as="alternateBounds" />
          </mxGeometry>
        </mxCell>
        <mxCell id="vooBvcQWxdQSS4KOjkIJ-9" value="" style="shape=partialRectangle;collapsible=0;dropTarget=0;pointerEvents=0;fillColor=none;points=[[0,0.5],[1,0.5]];portConstraint=eastwest;top=0;left=0;right=0;bottom=0;" vertex="1" parent="vooBvcQWxdQSS4KOjkIJ-5">
          <mxGeometry y="60" width="290" height="40" as="geometry" />
        </mxCell>
        <mxCell id="vooBvcQWxdQSS4KOjkIJ-10" value="FK1" style="shape=partialRectangle;overflow=hidden;connectable=0;fillColor=none;top=0;left=0;bottom=0;right=0;" vertex="1" parent="vooBvcQWxdQSS4KOjkIJ-9">
          <mxGeometry width="40" height="40" as="geometry">
            <mxRectangle width="40" height="40" as="alternateBounds" />
          </mxGeometry>
        </mxCell>
        <mxCell id="vooBvcQWxdQSS4KOjkIJ-11" value="Object_id int NOT NULL" style="shape=partialRectangle;overflow=hidden;connectable=0;fillColor=none;top=0;left=0;bottom=0;right=0;align=left;spacingLeft=6;" vertex="1" parent="vooBvcQWxdQSS4KOjkIJ-9">
          <mxGeometry x="40" width="250" height="40" as="geometry">
            <mxRectangle width="250" height="40" as="alternateBounds" />
          </mxGeometry>
        </mxCell>
        <mxCell id="vooBvcQWxdQSS4KOjkIJ-12" value="" style="shape=partialRectangle;collapsible=0;dropTarget=0;pointerEvents=0;fillColor=none;points=[[0,0.5],[1,0.5]];portConstraint=eastwest;top=0;left=0;right=0;bottom=0;" vertex="1" parent="vooBvcQWxdQSS4KOjkIJ-5">
          <mxGeometry y="100" width="290" height="80" as="geometry" />
        </mxCell>
        <mxCell id="vooBvcQWxdQSS4KOjkIJ-13" value="" style="shape=partialRectangle;overflow=hidden;connectable=0;fillColor=none;top=0;left=0;bottom=0;right=0;" vertex="1" parent="vooBvcQWxdQSS4KOjkIJ-12">
          <mxGeometry width="40" height="80" as="geometry">
            <mxRectangle width="40" height="80" as="alternateBounds" />
          </mxGeometry>
        </mxCell>
        <mxCell id="vooBvcQWxdQSS4KOjkIJ-14" value="" style="shape=partialRectangle;overflow=hidden;connectable=0;fillColor=none;top=0;left=0;bottom=0;right=0;align=left;spacingLeft=6;" vertex="1" parent="vooBvcQWxdQSS4KOjkIJ-12">
          <mxGeometry x="40" width="250" height="80" as="geometry">
            <mxRectangle width="250" height="80" as="alternateBounds" />
          </mxGeometry>
        </mxCell>
        <mxCell id="vooBvcQWxdQSS4KOjkIJ-72" value="" style="shape=partialRectangle;collapsible=0;dropTarget=0;pointerEvents=0;fillColor=none;points=[[0,0.5],[1,0.5]];portConstraint=eastwest;top=0;left=0;right=0;bottom=0;" vertex="1" parent="vooBvcQWxdQSS4KOjkIJ-5">
          <mxGeometry y="180" width="290" height="40" as="geometry" />
        </mxCell>
        <mxCell id="vooBvcQWxdQSS4KOjkIJ-73" value="" style="shape=partialRectangle;overflow=hidden;connectable=0;fillColor=none;top=0;left=0;bottom=0;right=0;" vertex="1" parent="vooBvcQWxdQSS4KOjkIJ-72">
          <mxGeometry width="40" height="40" as="geometry">
            <mxRectangle width="40" height="40" as="alternateBounds" />
          </mxGeometry>
        </mxCell>
        <mxCell id="vooBvcQWxdQSS4KOjkIJ-74" value="Well_pressure int" style="shape=partialRectangle;overflow=hidden;connectable=0;fillColor=none;top=0;left=0;bottom=0;right=0;align=left;spacingLeft=6;" vertex="1" parent="vooBvcQWxdQSS4KOjkIJ-72">
          <mxGeometry x="40" width="250" height="40" as="geometry">
            <mxRectangle width="250" height="40" as="alternateBounds" />
          </mxGeometry>
        </mxCell>
        <mxCell id="vooBvcQWxdQSS4KOjkIJ-16" value="" style="edgeStyle=entityRelationEdgeStyle;endArrow=ERzeroToMany;startArrow=ERone;endFill=1;startFill=0;" edge="1" parent="1" source="C-vyLk0tnHw3VtMMgP7b-24">
          <mxGeometry width="100" height="100" relative="1" as="geometry">
            <mxPoint x="300" y="130" as="sourcePoint" />
            <mxPoint x="360" y="150" as="targetPoint" />
          </mxGeometry>
        </mxCell>
        <mxCell id="vooBvcQWxdQSS4KOjkIJ-32" value="" style="edgeStyle=entityRelationEdgeStyle;endArrow=ERzeroToMany;startArrow=ERone;endFill=1;startFill=0;entryX=1.005;entryY=0.733;entryDx=0;entryDy=0;entryPerimeter=0;" edge="1" parent="1" target="vooBvcQWxdQSS4KOjkIJ-6">
          <mxGeometry width="100" height="100" relative="1" as="geometry">
            <mxPoint x="950" y="120" as="sourcePoint" />
            <mxPoint x="930" y="350" as="targetPoint" />
            <Array as="points">
              <mxPoint x="980" y="115" />
              <mxPoint x="1030" y="235" />
              <mxPoint x="970" y="350" />
              <mxPoint x="1000" y="235" />
              <mxPoint x="1000" y="235" />
              <mxPoint x="990" y="175" />
              <mxPoint x="1010" y="195" />
              <mxPoint x="1070" y="175" />
            </Array>
          </mxGeometry>
        </mxCell>
        <mxCell id="vooBvcQWxdQSS4KOjkIJ-33" value="FK1" style="shape=partialRectangle;overflow=hidden;connectable=0;fillColor=none;top=0;left=0;bottom=0;right=0;" vertex="1" parent="1">
          <mxGeometry x="360" y="125" width="30" height="30" as="geometry">
            <mxRectangle width="30" height="30" as="alternateBounds" />
          </mxGeometry>
        </mxCell>
        <mxCell id="vooBvcQWxdQSS4KOjkIJ-36" value="" style="edgeStyle=entityRelationEdgeStyle;endArrow=ERzeroToMany;startArrow=ERone;endFill=1;startFill=0;entryX=1.01;entryY=0.761;entryDx=0;entryDy=0;entryPerimeter=0;" edge="1" parent="1" target="vooBvcQWxdQSS4KOjkIJ-44">
          <mxGeometry width="100" height="100" relative="1" as="geometry">
            <mxPoint x="950" y="120" as="sourcePoint" />
            <mxPoint x="930" y="505" as="targetPoint" />
            <Array as="points">
              <mxPoint x="970" y="130" />
              <mxPoint x="960" y="100" />
              <mxPoint x="1030" y="220" />
              <mxPoint x="970" y="200" />
              <mxPoint x="990" y="160" />
              <mxPoint x="1010" y="180" />
              <mxPoint x="1070" y="160" />
            </Array>
          </mxGeometry>
        </mxCell>
        <mxCell id="vooBvcQWxdQSS4KOjkIJ-38" value="State_of_well char(50) NOT NULL" style="shape=partialRectangle;overflow=hidden;connectable=0;fillColor=none;top=0;left=0;bottom=0;right=0;align=left;spacingLeft=6;" vertex="1" parent="1">
          <mxGeometry x="680" y="400" width="260" height="40" as="geometry">
            <mxRectangle width="260" height="60" as="alternateBounds" />
          </mxGeometry>
        </mxCell>
        <mxCell id="vooBvcQWxdQSS4KOjkIJ-39" value="Well_name char(50) NOT NULL" style="shape=partialRectangle;overflow=hidden;connectable=0;fillColor=none;top=0;left=0;bottom=0;right=0;align=left;spacingLeft=6;" vertex="1" parent="1">
          <mxGeometry x="680" y="360" width="260" height="40" as="geometry">
            <mxRectangle width="260" height="60" as="alternateBounds" />
          </mxGeometry>
        </mxCell>
        <mxCell id="vooBvcQWxdQSS4KOjkIJ-43" value="&#xa;Production_wells" style="shape=table;startSize=30;container=1;collapsible=1;childLayout=tableLayout;fixedRows=1;rowLines=0;fontStyle=1;align=center;resizeLast=1;" vertex="1" parent="1">
          <mxGeometry x="640" y="500" width="290" height="260" as="geometry" />
        </mxCell>
        <mxCell id="vooBvcQWxdQSS4KOjkIJ-44" value="" style="shape=partialRectangle;collapsible=0;dropTarget=0;pointerEvents=0;fillColor=none;points=[[0,0.5],[1,0.5]];portConstraint=eastwest;top=0;left=0;right=0;bottom=1;" vertex="1" parent="vooBvcQWxdQSS4KOjkIJ-43">
          <mxGeometry y="30" width="290" height="30" as="geometry" />
        </mxCell>
        <mxCell id="vooBvcQWxdQSS4KOjkIJ-45" value="PK" style="shape=partialRectangle;overflow=hidden;connectable=0;fillColor=none;top=0;left=0;bottom=0;right=0;fontStyle=1;" vertex="1" parent="vooBvcQWxdQSS4KOjkIJ-44">
          <mxGeometry width="40" height="30" as="geometry">
            <mxRectangle width="40" height="30" as="alternateBounds" />
          </mxGeometry>
        </mxCell>
        <mxCell id="vooBvcQWxdQSS4KOjkIJ-46" value="Production_well_id int NOT NULL " style="shape=partialRectangle;overflow=hidden;connectable=0;fillColor=none;top=0;left=0;bottom=0;right=0;align=left;spacingLeft=6;fontStyle=5;" vertex="1" parent="vooBvcQWxdQSS4KOjkIJ-44">
          <mxGeometry x="40" width="250" height="30" as="geometry">
            <mxRectangle width="250" height="30" as="alternateBounds" />
          </mxGeometry>
        </mxCell>
        <mxCell id="vooBvcQWxdQSS4KOjkIJ-47" value="" style="shape=partialRectangle;collapsible=0;dropTarget=0;pointerEvents=0;fillColor=none;points=[[0,0.5],[1,0.5]];portConstraint=eastwest;top=0;left=0;right=0;bottom=0;" vertex="1" parent="vooBvcQWxdQSS4KOjkIJ-43">
          <mxGeometry y="60" width="290" height="40" as="geometry" />
        </mxCell>
        <mxCell id="vooBvcQWxdQSS4KOjkIJ-48" value="FK1" style="shape=partialRectangle;overflow=hidden;connectable=0;fillColor=none;top=0;left=0;bottom=0;right=0;" vertex="1" parent="vooBvcQWxdQSS4KOjkIJ-47">
          <mxGeometry width="40" height="40" as="geometry">
            <mxRectangle width="40" height="40" as="alternateBounds" />
          </mxGeometry>
        </mxCell>
        <mxCell id="vooBvcQWxdQSS4KOjkIJ-49" value="Object_id int NOT NULL" style="shape=partialRectangle;overflow=hidden;connectable=0;fillColor=none;top=0;left=0;bottom=0;right=0;align=left;spacingLeft=6;" vertex="1" parent="vooBvcQWxdQSS4KOjkIJ-47">
          <mxGeometry x="40" width="250" height="40" as="geometry">
            <mxRectangle width="250" height="40" as="alternateBounds" />
          </mxGeometry>
        </mxCell>
        <mxCell id="vooBvcQWxdQSS4KOjkIJ-50" value="" style="shape=partialRectangle;collapsible=0;dropTarget=0;pointerEvents=0;fillColor=none;points=[[0,0.5],[1,0.5]];portConstraint=eastwest;top=0;left=0;right=0;bottom=0;" vertex="1" parent="vooBvcQWxdQSS4KOjkIJ-43">
          <mxGeometry y="100" width="290" height="120" as="geometry" />
        </mxCell>
        <mxCell id="vooBvcQWxdQSS4KOjkIJ-51" value="" style="shape=partialRectangle;overflow=hidden;connectable=0;fillColor=none;top=0;left=0;bottom=0;right=0;" vertex="1" parent="vooBvcQWxdQSS4KOjkIJ-50">
          <mxGeometry width="40" height="120" as="geometry">
            <mxRectangle width="40" height="120" as="alternateBounds" />
          </mxGeometry>
        </mxCell>
        <mxCell id="vooBvcQWxdQSS4KOjkIJ-52" value="" style="shape=partialRectangle;overflow=hidden;connectable=0;fillColor=none;top=0;left=0;bottom=0;right=0;align=left;spacingLeft=6;" vertex="1" parent="vooBvcQWxdQSS4KOjkIJ-50">
          <mxGeometry x="40" width="250" height="120" as="geometry">
            <mxRectangle width="250" height="120" as="alternateBounds" />
          </mxGeometry>
        </mxCell>
        <mxCell id="vooBvcQWxdQSS4KOjkIJ-75" value="" style="shape=partialRectangle;collapsible=0;dropTarget=0;pointerEvents=0;fillColor=none;points=[[0,0.5],[1,0.5]];portConstraint=eastwest;top=0;left=0;right=0;bottom=0;" vertex="1" parent="vooBvcQWxdQSS4KOjkIJ-43">
          <mxGeometry y="220" width="290" height="40" as="geometry" />
        </mxCell>
        <mxCell id="vooBvcQWxdQSS4KOjkIJ-76" value="" style="shape=partialRectangle;overflow=hidden;connectable=0;fillColor=none;top=0;left=0;bottom=0;right=0;" vertex="1" parent="vooBvcQWxdQSS4KOjkIJ-75">
          <mxGeometry width="40" height="40" as="geometry">
            <mxRectangle width="40" height="40" as="alternateBounds" />
          </mxGeometry>
        </mxCell>
        <mxCell id="vooBvcQWxdQSS4KOjkIJ-77" value="Well_pressure int" style="shape=partialRectangle;overflow=hidden;connectable=0;fillColor=none;top=0;left=0;bottom=0;right=0;align=left;spacingLeft=6;" vertex="1" parent="vooBvcQWxdQSS4KOjkIJ-75">
          <mxGeometry x="40" width="250" height="40" as="geometry">
            <mxRectangle width="250" height="40" as="alternateBounds" />
          </mxGeometry>
        </mxCell>
        <mxCell id="vooBvcQWxdQSS4KOjkIJ-53" value="State_of_well char(50) NOT NULL" style="shape=partialRectangle;overflow=hidden;connectable=0;fillColor=none;top=0;left=0;bottom=0;right=0;align=left;spacingLeft=6;" vertex="1" parent="1">
          <mxGeometry x="680" y="680" width="260" height="40" as="geometry">
            <mxRectangle width="260" height="60" as="alternateBounds" />
          </mxGeometry>
        </mxCell>
        <mxCell id="vooBvcQWxdQSS4KOjkIJ-54" value="Type_of_production_well char(50) NOT NULL" style="shape=partialRectangle;overflow=hidden;connectable=0;fillColor=none;top=0;left=0;bottom=0;right=0;align=left;spacingLeft=6;" vertex="1" parent="1">
          <mxGeometry x="680" y="640" width="260" height="40" as="geometry">
            <mxRectangle width="260" height="60" as="alternateBounds" />
          </mxGeometry>
        </mxCell>
        <mxCell id="vooBvcQWxdQSS4KOjkIJ-55" value="Well_name char(50) NOT NULL" style="shape=partialRectangle;overflow=hidden;connectable=0;fillColor=none;top=0;left=0;bottom=0;right=0;align=left;spacingLeft=6;" vertex="1" parent="1">
          <mxGeometry x="680" y="600" width="260" height="40" as="geometry">
            <mxRectangle width="260" height="60" as="alternateBounds" />
          </mxGeometry>
        </mxCell>
        <mxCell id="vooBvcQWxdQSS4KOjkIJ-59" value="" style="shape=partialRectangle;collapsible=0;dropTarget=0;pointerEvents=0;fillColor=none;points=[[0,0.5],[1,0.5]];portConstraint=eastwest;top=0;left=0;right=0;bottom=0;" vertex="1" parent="1">
          <mxGeometry x="360" y="120" width="240" height="40" as="geometry" />
        </mxCell>
        <mxCell id="vooBvcQWxdQSS4KOjkIJ-60" value="" style="shape=partialRectangle;overflow=hidden;connectable=0;fillColor=none;top=0;left=0;bottom=0;right=0;" vertex="1" parent="vooBvcQWxdQSS4KOjkIJ-59">
          <mxGeometry width="40" height="40" as="geometry">
            <mxRectangle width="40" height="40" as="alternateBounds" />
          </mxGeometry>
        </mxCell>
        <mxCell id="vooBvcQWxdQSS4KOjkIJ-61" value="Сompany_id int NOT NULL" style="shape=partialRectangle;overflow=hidden;connectable=0;fillColor=none;top=0;left=0;bottom=0;right=0;align=left;spacingLeft=6;" vertex="1" parent="vooBvcQWxdQSS4KOjkIJ-59">
          <mxGeometry x="40" width="200" height="40" as="geometry">
            <mxRectangle width="200" height="40" as="alternateBounds" />
          </mxGeometry>
        </mxCell>
      </root>
    </mxGraphModel>
  </diagram>
</mxfile>
